# xmcd
#
# Track frame offsets:
#	150
#	16800
#	33150
#	51750
#	69975
#	88275
#	104100
#	119325
#	140475
#	155850
#	174900
#	189825
#
# Disc length: 2741 seconds
#
# Revision: 0
# Processed by: cddbd v1.5.2PL0 Copyright (c) Steve Scherf et al.
# Submitted via: dBpowerAMP V4.0
#
DISCID=9f0ab30c
DTITLE=Scars of Life - What We Reflect
DYEAR=2005
DGENRE=Rock
TTITLE0=Lemon
TTITLE1=Alone Inside
TTITLE2=Pool of Fears
TTITLE3=Mute
TTITLE4=Lost Years
TTITLE5=Placebo
TTITLE6=Away from Me
TTITLE7=Watch Me Drown
TTITLE8=Descending
TTITLE9=Bullet With Your Name
TTITLE10=Water in My Hands
TTITLE11=Silent Words
EXTD=
EXTT0=
EXTT1=
EXTT2=
EXTT3=
EXTT4=
EXTT5=
EXTT6=
EXTT7=
EXTT8=
EXTT9=
EXTT10=
EXTT11=
PLAYORDER=
